<svg xmlns="http://www.w3.org/2000/svg" xmlns:xlink="http://www.w3.org/1999/xlink" width="1080" zoomAndPan="magnify" viewBox="0 0 810 809.999993" height="1080" preserveAspectRatio="xMidYMid meet" version="1.0"><defs><clipPath id="65429b53c2"><path d="M 253 47 L 545 47 L 545 778 L 253 778 Z M 253 47 " clip-rule="nonzero"/></clipPath><clipPath id="99ea89e011"><path d="M 427.453125 20.960938 L 568.863281 752.929688 L 382.558594 788.921875 L 241.148438 56.957031 Z M 427.453125 20.960938 " clip-rule="nonzero"/></clipPath><clipPath id="02d3cc66fb"><path d="M 427.453125 20.960938 L 568.863281 752.929688 L 382.558594 788.921875 L 241.148438 56.957031 Z M 427.453125 20.960938 " clip-rule="nonzero"/></clipPath><clipPath id="964aaa7b54"><path d="M 245 39 L 553 39 L 553 786 L 245 786 Z M 245 39 " clip-rule="nonzero"/></clipPath><clipPath id="ab53d25392"><path d="M 427.453125 20.960938 L 568.863281 752.929688 L 382.558594 788.921875 L 241.148438 56.957031 Z M 427.453125 20.960938 " clip-rule="nonzero"/></clipPath><clipPath id="53fd84850d"><path d="M 427.453125 20.960938 L 568.863281 752.929688 L 382.558594 788.921875 L 241.148438 56.957031 Z M 427.453125 20.960938 " clip-rule="nonzero"/></clipPath></defs><g clip-path="url(#65429b53c2)"><g clip-path="url(#99ea89e011)"><g clip-path="url(#02d3cc66fb)"><path fill="#80aeb4" d="M 478.1875 760.050781 L 388.542969 777.367188 L 454.527344 689.652344 L 362.597656 634.042969 L 427.839844 547.320312 L 335.835938 491.644531 L 398.902344 407.007812 L 306.148438 350.890625 L 372.132812 263.175781 L 280.207031 207.566406 L 345.445312 120.84375 L 253.300781 65.070312 L 342.945312 47.75 L 435.089844 103.527344 L 369.851562 190.246094 L 461.777344 245.855469 L 395.792969 333.574219 L 488.285156 389.53125 L 425.199219 474.171875 L 517.484375 530.003906 L 452.242188 616.722656 L 544.167969 672.332031 Z M 478.1875 760.050781 " fill-opacity="1" fill-rule="nonzero"/></g></g></g><g clip-path="url(#964aaa7b54)"><g clip-path="url(#ab53d25392)"><g clip-path="url(#53fd84850d)"><path fill="#000000" d="M 484.710938 764.957031 L 550.691406 677.238281 C 552.078125 675.398438 552.621094 673.050781 552.183594 670.785156 C 551.742188 668.519531 550.367188 666.542969 548.390625 665.347656 L 464.195312 614.414062 L 524.007812 534.910156 C 525.394531 533.066406 525.933594 530.722656 525.496094 528.457031 C 525.058594 526.1875 523.683594 524.214844 521.710938 523.019531 L 437.117188 471.84375 L 494.832031 394.40625 C 496.203125 392.566406 496.738281 390.234375 496.300781 387.980469 L 496.296875 387.964844 C 495.855469 385.703125 494.480469 383.738281 492.511719 382.542969 L 407.746094 331.265625 L 468.300781 250.761719 C 469.6875 248.917969 470.226562 246.574219 469.789062 244.308594 C 469.351562 242.042969 467.976562 240.066406 466 238.871094 L 381.804688 187.941406 L 441.613281 108.433594 C 443 106.589844 443.542969 104.242188 443.105469 101.976562 C 442.667969 99.710938 441.289062 97.738281 439.316406 96.542969 L 347.171875 40.769531 C 345.441406 39.71875 343.382812 39.351562 341.394531 39.738281 L 251.753906 57.054688 C 248.4375 57.695312 245.859375 60.3125 245.265625 63.632812 C 244.667969 66.957031 246.1875 70.304688 249.074219 72.050781 L 333.496094 123.152344 L 273.683594 202.65625 C 272.292969 204.503906 271.753906 206.847656 272.191406 209.113281 C 272.628906 211.378906 274.007812 213.355469 275.980469 214.550781 L 360.183594 265.484375 L 299.625 345.984375 C 298.238281 347.828125 297.699219 350.171875 298.136719 352.441406 C 298.574219 354.707031 299.949219 356.679688 301.921875 357.875 L 386.984375 409.335938 L 329.292969 486.769531 C 327.921875 488.609375 327.386719 490.941406 327.824219 493.195312 L 327.824219 493.210938 C 328.269531 495.472656 329.640625 497.4375 331.609375 498.628906 L 415.886719 549.632812 L 356.074219 629.136719 C 354.6875 630.980469 354.148438 633.328125 354.585938 635.59375 C 355.023438 637.859375 356.398438 639.832031 358.375 641.03125 L 442.574219 691.964844 L 382.019531 772.464844 C 380.605469 774.347656 380.097656 776.699219 380.527344 778.921875 C 380.714844 779.886719 381.078125 780.832031 381.621094 781.699219 C 383.410156 784.5625 386.777344 786.027344 390.089844 785.386719 L 479.734375 768.070312 C 481.71875 767.679688 483.492188 766.574219 484.710938 764.957031 Z M 407.808594 765.332031 L 461.046875 694.554688 C 462.433594 692.714844 462.976562 690.367188 462.539062 688.101562 C 462.101562 685.835938 460.722656 683.859375 458.75 682.664062 L 374.550781 631.734375 L 434.363281 552.230469 C 435.75 550.386719 436.289062 548.039062 435.851562 545.773438 C 435.414062 543.507812 434.035156 541.535156 432.066406 540.339844 L 347.75 489.3125 L 405.449219 411.882812 C 406.816406 410.042969 407.351562 407.707031 406.917969 405.457031 L 406.914062 405.4375 C 406.46875 403.179688 405.097656 401.210938 403.125 400.019531 L 318.101562 348.582031 L 378.65625 268.082031 C 380.046875 266.238281 380.585938 263.890625 380.148438 261.625 C 379.710938 259.359375 378.332031 257.386719 376.359375 256.191406 L 292.160156 205.257812 L 351.96875 125.753906 C 353.355469 123.90625 353.898438 121.5625 353.460938 119.296875 C 353.023438 117.03125 351.644531 115.054688 349.671875 113.863281 L 275.660156 69.0625 L 341.40625 56.363281 L 423.136719 105.835938 L 363.324219 185.339844 C 361.9375 187.183594 361.398438 189.53125 361.835938 191.796875 C 362.273438 194.0625 363.648438 196.035156 365.625 197.230469 L 449.824219 248.164062 L 389.269531 328.667969 C 387.882812 330.511719 387.339844 332.855469 387.777344 335.121094 C 388.214844 337.386719 389.59375 339.363281 391.566406 340.558594 L 476.367188 391.863281 L 418.65625 469.296875 C 417.285156 471.136719 416.75 473.46875 417.183594 475.722656 L 417.1875 475.742188 C 417.632812 478 419.003906 479.964844 420.972656 481.160156 L 505.53125 532.3125 L 445.71875 611.816406 C 444.332031 613.660156 443.789062 616.007812 444.226562 618.273438 C 444.664062 620.539062 446.042969 622.511719 448.015625 623.710938 L 532.214844 674.644531 L 473.550781 752.632812 Z M 407.808594 765.332031 " fill-opacity="1" fill-rule="nonzero"/></g></g></g></svg>